<?xml version="1.0" encoding="UTF-8" standalone="no"?>
<!-- Generator: Adobe Illustrator 18.1.1, SVG Export Plug-In . SVG Version: 6.00 Build 0)  -->

<svg
   xmlns:osb="http://www.openswatchbook.org/uri/2009/osb"
   xmlns:dc="http://purl.org/dc/elements/1.1/"
   xmlns:cc="http://creativecommons.org/ns#"
   xmlns:rdf="http://www.w3.org/1999/02/22-rdf-syntax-ns#"
   xmlns:svg="http://www.w3.org/2000/svg"
   xmlns="http://www.w3.org/2000/svg"
   xmlns:sodipodi="http://sodipodi.sourceforge.net/DTD/sodipodi-0.dtd"
   xmlns:inkscape="http://www.inkscape.org/namespaces/inkscape"
   version="1.1"
   id="Capa_1"
   x="0px"
   y="0px"
   viewBox="0 0 51.76 51.76"
   style="enable-background:new 0 0 51.76 51.76;"
   xml:space="preserve"
   width="512px"
   height="512px"
   sodipodi:docname="logo.svg"
   inkscape:version="0.92.3 (2405546, 2018-03-11)"><metadata
   id="metadata45"><rdf:RDF><cc:Work
       rdf:about=""><dc:format>image/svg+xml</dc:format><dc:type
         rdf:resource="http://purl.org/dc/dcmitype/StillImage" /><dc:title></dc:title></cc:Work></rdf:RDF></metadata><defs
   id="defs43"><linearGradient
   id="linearGradient856"
   osb:paint="solid"><stop
     style="stop-color:#458fb4;stop-opacity:1;"
     offset="0"
     id="stop854" /></linearGradient>
	

		
		
	</defs><sodipodi:namedview
   pagecolor="#ffffff"
   bordercolor="#666666"
   borderopacity="1"
   objecttolerance="10"
   gridtolerance="10"
   guidetolerance="10"
   inkscape:pageopacity="0"
   inkscape:pageshadow="2"
   inkscape:window-width="3840"
   inkscape:window-height="2004"
   id="namedview41"
   showgrid="false"
   inkscape:zoom="1.84375"
   inkscape:cx="197.40361"
   inkscape:cy="97.381678"
   inkscape:window-x="-16"
   inkscape:window-y="-16"
   inkscape:window-maximized="1"
   inkscape:current-layer="g4564" />

<g
   id="g10">
</g>
<g
   id="g12">
</g>
<g
   id="g14">
</g>
<g
   id="g16">
</g>
<g
   id="g18">
</g>
<g
   id="g20">
</g>
<g
   id="g22">
</g>
<g
   id="g24">
</g>
<g
   id="g26">
</g>
<g
   id="g28">
</g>
<g
   id="g30">
</g>
<g
   id="g32">
</g>
<g
   id="g34">
</g>
<g
   id="g36">
</g>
<g
   id="g38">
</g>
<g
   id="g4564"><g
     id="g4574"><path
       inkscape:connector-curvature="0"
       style="fill:#458fb4;stroke-width:0.64905763"
       d="m 22.406937,12.228969 a 3.1284578,3.1284578 0 0 1 -3.128458,3.128458 3.1284578,3.1284578 0 0 1 -3.128458,-3.128458 3.1284578,3.1284578 0 0 1 3.128458,-3.1284575 3.1284578,3.1284578 0 0 1 3.128458,3.1284575 z"
       id="circle2" /><path
       d="m 38.944275,39.087622 c -3.728186,-5.564371 -7.991197,-12.812397 -8.707756,-14.035871 -0.06491,-0.221977 -0.150582,-0.4472 -0.26871,-0.673721 -0.851564,-1.659641 -1.742071,-3.300458 -2.650752,-4.930242 0.963202,0.07529 1.929,0.149932 2.891552,0.224574 0.662039,1.304606 1.320832,2.609861 1.981573,3.913817 1.063805,2.101 4.212384,0.252484 3.151175,-1.842674 -0.851564,-1.683007 -1.860849,-5.468311 -4.059207,-5.639013 -2.339203,-0.181736 -4.677758,-0.363472 -7.016312,-0.544559 -0.05712,-0.0045 -0.105797,0.0032 -0.160318,0.0032 -1.768033,-0.473163 -3.840474,0.774326 -4.215629,2.576759 -1.195564,2.589091 -2.912321,4.610905 -5.792839,5.45468 -2.254826,0.659443 -1.294221,4.181878 0.970341,3.519839 2.847416,-0.83339 4.892596,-2.46512 6.443195,-4.612852 0.939186,1.674569 1.856305,3.359522 2.735129,5.067842 -1.932245,1.332515 -3.620444,2.944125 -5.099646,4.803675 -0.4128,0.518597 -0.483548,1.052123 -0.344649,1.521391 -0.0052,0.175246 0.0058,0.356982 0.05582,0.554295 0.569223,2.253528 1.137798,4.503162 1.70767,6.754094 0.604273,2.398917 4.401909,1.717406 3.792444,-0.697088 -0.541963,-2.145135 -1.084576,-4.290271 -1.626539,-6.436704 1.359127,-1.602524 2.96165,-2.996699 4.792642,-4.037788 0.430974,-0.245343 0.70228,-0.583502 0.852861,-0.956062 2.504714,3.838527 5.010076,9.149117 7.513491,12.367793 1.527882,1.964049 4.584294,-0.387487 3.054465,-2.35543 z"
       id="path4"
       inkscape:connector-curvature="0"
       style="fill:#458fb4;stroke-width:0.64905763" /><path
       style="fill:#458fb4;fill-opacity:1;stroke:none;stroke-width:0.14914441;stroke-linecap:round;stroke-linejoin:round;stroke-miterlimit:4;stroke-dasharray:none;stroke-opacity:1"
       d="M 26.086916,0.41127209 A 25.273438,25.486968 0 0 0 0.81347953,25.898217 25.273438,25.486968 0 0 0 26.086916,51.385162 25.273438,25.486968 0 0 0 51.360354,25.898217 25.273438,25.486968 0 0 0 26.086916,0.41127209 Z M 26.264797,3.9217096 A 21.513852,21.834145 0 0 1 47.778662,25.755836 21.513852,21.834145 0 0 1 26.264797,47.589962 21.513852,21.834145 0 0 1 4.7509317,25.755836 21.513852,21.834145 0 0 1 26.264797,3.9217096 Z"
       id="path834"
       inkscape:connector-curvature="0" /></g></g></svg>