<?xml version="1.0" encoding="UTF-8" standalone="no"?>
<!-- Generator: Adobe Illustrator 18.1.1, SVG Export Plug-In . SVG Version: 6.00 Build 0)  -->

<svg
   xmlns:osb="http://www.openswatchbook.org/uri/2009/osb"
   xmlns:dc="http://purl.org/dc/elements/1.1/"
   xmlns:cc="http://creativecommons.org/ns#"
   xmlns:rdf="http://www.w3.org/1999/02/22-rdf-syntax-ns#"
   xmlns:svg="http://www.w3.org/2000/svg"
   xmlns="http://www.w3.org/2000/svg"
   xmlns:sodipodi="http://sodipodi.sourceforge.net/DTD/sodipodi-0.dtd"
   xmlns:inkscape="http://www.inkscape.org/namespaces/inkscape"
   version="1.1"
   id="Capa_1"
   x="0px"
   y="0px"
   viewBox="0 0 51.76 51.76"
   style="enable-background:new 0 0 51.76 51.76;"
   xml:space="preserve"
   width="512px"
   height="512px"
   sodipodi:docname="man-walking (1).svg"
   inkscape:version="0.92.3 (2405546, 2018-03-11)"><metadata
   id="metadata45"><rdf:RDF><cc:Work
       rdf:about=""><dc:format>image/svg+xml</dc:format><dc:type
         rdf:resource="http://purl.org/dc/dcmitype/StillImage" /></cc:Work></rdf:RDF></metadata><defs
   id="defs43"><linearGradient
     id="linearGradient856"
     osb:paint="solid"><stop
       style="stop-color:#458fb4;stop-opacity:1;"
       offset="0"
       id="stop854" /></linearGradient></defs><sodipodi:namedview
   pagecolor="#ffffff"
   bordercolor="#666666"
   borderopacity="1"
   objecttolerance="10"
   gridtolerance="10"
   guidetolerance="10"
   inkscape:pageopacity="0"
   inkscape:pageshadow="2"
   inkscape:window-width="3840"
   inkscape:window-height="2004"
   id="namedview41"
   showgrid="false"
   inkscape:zoom="1.84375"
   inkscape:cx="357.40361"
   inkscape:cy="227.55117"
   inkscape:window-x="-16"
   inkscape:window-y="-16"
   inkscape:window-maximized="1"
   inkscape:current-layer="Capa_1" />

<g
   id="g10">
</g>
<g
   id="g12">
</g>
<g
   id="g14">
</g>
<g
   id="g16">
</g>
<g
   id="g18">
</g>
<g
   id="g20">
</g>
<g
   id="g22">
</g>
<g
   id="g24">
</g>
<g
   id="g26">
</g>
<g
   id="g28">
</g>
<g
   id="g30">
</g>
<g
   id="g32">
</g>
<g
   id="g34">
</g>
<g
   id="g36">
</g>
<g
   id="g38">
</g>
<g
   id="g865"><g
     id="g8">
	<g
   id="g6">
		<circle
   id="circle2"
   fill="#458fb4"
   r="4.82"
   cy="4.82"
   cx="15.39" />
		<path
   id="path4"
   fill="#458fb4"
   d="M45.689,46.201c-5.744-8.573-12.312-19.74-13.416-21.625c-0.1-0.342-0.232-0.689-0.414-1.038    c-1.312-2.557-2.684-5.085-4.084-7.596c1.484,0.116,2.972,0.231,4.455,0.346c1.02,2.01,2.035,4.021,3.053,6.03    c1.639,3.237,6.49,0.389,4.855-2.839c-1.312-2.593-2.867-8.425-6.254-8.688c-3.604-0.28-7.207-0.56-10.81-0.839    c-0.088-0.007-0.163,0.005-0.247,0.005c-2.724-0.729-5.917,1.193-6.495,3.97c-1.842,3.989-4.487,7.104-8.925,8.404    c-3.474,1.016-1.994,6.443,1.495,5.423c4.387-1.284,7.538-3.798,9.927-7.107c1.447,2.58,2.86,5.176,4.214,7.808    c-2.977,2.053-5.578,4.536-7.857,7.401c-0.636,0.799-0.745,1.621-0.531,2.344c-0.008,0.27,0.009,0.55,0.086,0.854    c0.877,3.472,1.753,6.938,2.631,10.406c0.931,3.696,6.782,2.646,5.843-1.074c-0.835-3.305-1.671-6.61-2.506-9.917    c2.094-2.469,4.563-4.617,7.384-6.221c0.664-0.378,1.082-0.899,1.314-1.473c3.859,5.914,7.719,14.096,11.576,19.055    C43.337,52.856,48.046,49.233,45.689,46.201z" />
	</g>
</g><ellipse
     ry="36.244888"
     rx="36.052982"
     cy="27.634577"
     cx="24.755976"
     id="path852"
     style="fill:none;fill-opacity:1;stroke:#458fb4;stroke-width:6.065625;stroke-linecap:round;stroke-linejoin:round;stroke-miterlimit:4;stroke-dasharray:none;stroke-opacity:1" /></g></svg>